<svg width="16" height="16" viewBox="0 0 16 16" fill="none" xmlns="http://www.w3.org/2000/svg">
<g id="vuesax/outline/book">
<g id="book">
<path id="Vector" d="M7.99999 14.72C7.79999 14.72 7.59999 14.6733 7.43333 14.58C6.18666 13.9 3.99333 13.18 2.61999 13L2.42666 12.9733C1.55333 12.8666 0.833328 12.0466 0.833328 11.16V3.10663C0.833328 2.57996 1.03999 2.09996 1.41999 1.7533C1.79999 1.40663 2.29333 1.23996 2.81333 1.28663C4.27999 1.39996 6.49333 2.1333 7.74666 2.91996L7.90666 3.0133C7.95333 3.03996 8.05333 3.03996 8.09333 3.01996L8.19999 2.9533C9.45333 2.16663 11.6667 1.41996 13.14 1.2933C13.1533 1.2933 13.2067 1.2933 13.22 1.2933C13.7067 1.24663 14.2067 1.41996 14.58 1.76663C14.96 2.1133 15.1667 2.5933 15.1667 3.11996V11.1666C15.1667 12.06 14.4467 12.8733 13.5667 12.98L13.3467 13.0066C11.9733 13.1866 9.77333 13.9133 8.55333 14.5866C8.39333 14.68 8.19999 14.72 7.99999 14.72ZM2.65333 2.27996C2.43999 2.27996 2.24666 2.3533 2.09333 2.4933C1.92666 2.64663 1.83333 2.86663 1.83333 3.10663V11.16C1.83333 11.5533 2.17333 11.9333 2.55333 11.9866L2.75333 12.0133C4.25333 12.2133 6.55333 12.9666 7.88666 13.6933C7.94666 13.72 8.03333 13.7266 8.06666 13.7133C9.39999 12.9733 11.7133 12.2133 13.22 12.0133L13.4467 11.9866C13.8267 11.94 14.1667 11.5533 14.1667 11.16V3.1133C14.1667 2.86663 14.0733 2.6533 13.9067 2.4933C13.7333 2.33996 13.5133 2.26663 13.2667 2.27996C13.2533 2.27996 13.2 2.27996 13.1867 2.27996C11.9133 2.3933 9.85999 3.07996 8.73999 3.77996L8.63333 3.8533C8.26666 4.07996 7.74666 4.07996 7.39333 3.85996L7.23333 3.76663C6.09333 3.06663 4.03999 2.38663 2.73333 2.27996C2.70666 2.27996 2.67999 2.27996 2.65333 2.27996Z" fill="#4A4A4A"/>
<path id="Vector_2" d="M8 14.16C7.72667 14.16 7.5 13.9334 7.5 13.66V3.66003C7.5 3.3867 7.72667 3.16003 8 3.16003C8.27333 3.16003 8.5 3.3867 8.5 3.66003V13.66C8.5 13.94 8.27333 14.16 8 14.16Z" fill="#4A4A4A"/>
<path id="Vector_3" d="M5.16667 6.16003H3.66667C3.39334 6.16003 3.16667 5.93337 3.16667 5.66003C3.16667 5.3867 3.39334 5.16003 3.66667 5.16003H5.16667C5.44001 5.16003 5.66667 5.3867 5.66667 5.66003C5.66667 5.93337 5.44001 6.16003 5.16667 6.16003Z" fill="#4A4A4A"/>
<path id="Vector_4" d="M5.66667 8.16003H3.66667C3.39334 8.16003 3.16667 7.93337 3.16667 7.66003C3.16667 7.3867 3.39334 7.16003 3.66667 7.16003H5.66667C5.94001 7.16003 6.16667 7.3867 6.16667 7.66003C6.16667 7.93337 5.94001 8.16003 5.66667 8.16003Z" fill="#4A4A4A"/>
</g>
</g>
</svg>
