<svg width="37" height="37" viewBox="0 0 37 37" fill="none" xmlns="http://www.w3.org/2000/svg">
<g id="Swift_logo_color 1" clip-path="url(#clip0_11_1745)">
<g id="Group">
<path id="Vector" d="M37.0001 10.2526C37.0001 9.86903 37.0001 9.52031 37.0001 9.13671C36.9652 8.33463 36.9303 7.49768 36.7908 6.69561C36.6514 5.89354 36.4072 5.12634 36.0236 4.39401C35.64 3.66168 35.1867 2.99909 34.5939 2.44113C34.001 1.84829 33.3384 1.39495 32.641 1.01135C31.9087 0.627745 31.1415 0.383642 30.3394 0.244151C29.5373 0.10466 28.7352 0.0349121 27.8983 0.0349121C27.5147 0.0349121 27.166 0.0349121 26.7824 0.0349121C26.329 0.0349121 25.9105 0.0349121 25.4572 0.0349121H15.6579H11.6127C11.1594 0.0349121 10.7409 0.0349121 10.2875 0.0349121C9.90394 0.0349121 9.55522 0.0349121 9.17162 0.0349121C8.96238 0.0349121 8.75315 0.0349142 8.57878 0.069787C7.98594 0.10466 7.35823 0.139533 6.76539 0.244151C6.17256 0.348769 5.57972 0.523131 5.02176 0.732367C4.84739 0.802113 4.63816 0.906735 4.46379 0.976481C3.90583 1.25546 3.41761 1.60419 2.92939 1.98779C2.7899 2.12728 2.61554 2.26676 2.47605 2.40626C1.88321 2.99909 1.42986 3.66168 1.04626 4.35913C0.662662 5.09146 0.418554 5.85866 0.279063 6.66074C0.139572 7.46281 0.104697 8.26488 0.0698242 9.10183C0.0698242 9.48543 0.0698242 9.83416 0.0698242 10.2178C0.0698242 10.6711 0.0698242 11.0896 0.0698242 11.5429V17.5759V25.3874C0.0698242 25.8408 0.0698242 26.2592 0.0698242 26.7126C0.0698242 27.0962 0.0698242 27.4449 0.0698242 27.8285C0.104697 28.6306 0.139572 29.4675 0.279063 30.2696C0.418554 31.0717 0.662662 31.8389 1.04626 32.5712C1.42986 33.3035 1.88321 33.9661 2.47605 34.5241C3.06889 35.1169 3.73146 35.5703 4.42892 35.9539C5.16125 36.3375 5.92845 36.5816 6.73052 36.7211C7.5326 36.8606 8.33467 36.9303 9.17162 36.9303C9.55522 36.9303 9.90394 36.9303 10.2875 36.9303C10.7409 36.9303 11.1594 36.9303 11.6127 36.9303H25.4572C25.9105 36.9303 26.329 36.9303 26.7824 36.9303C27.166 36.9303 27.5147 36.9303 27.8983 36.9303C28.7004 36.8954 29.5373 36.8606 30.3394 36.7211C31.1415 36.5816 31.9087 36.3375 32.641 35.9539C33.3733 35.5703 34.0359 35.1169 34.5939 34.5241C35.1867 33.9312 35.64 33.2687 36.0236 32.5712C36.4072 31.8389 36.6514 31.0717 36.7908 30.2696C36.9303 29.4675 37.0001 28.6655 37.0001 27.8285C37.0001 27.4449 37.0001 27.0962 37.0001 26.7126C37.0001 26.2592 37.0001 25.8408 37.0001 25.3874V11.5429C37.0001 11.1245 37.0001 10.706 37.0001 10.2526Z" fill="#F05138"/>
<path id="Vector_2" d="M29.2932 22.8417C29.328 22.7022 29.3629 22.5628 29.3978 22.4233C30.9322 16.3205 27.2008 9.067 20.854 5.26587C23.6438 9.03213 24.8643 13.6005 23.7833 17.5759C23.6786 17.9247 23.574 18.2734 23.4345 18.6221C23.295 18.5175 23.1207 18.4129 22.8766 18.3083C22.8766 18.3083 16.5646 14.4025 9.72954 7.5326C9.55518 7.35823 13.3912 13.0076 17.7154 17.5759C15.6579 16.4251 9.97365 12.2753 6.34688 8.99726C6.80023 9.72959 7.32332 10.4619 7.88129 11.1245C10.8803 14.9605 14.821 19.6683 19.5288 23.2951C16.2159 25.3177 11.5429 25.4921 6.90485 23.2951C5.75405 22.772 4.67299 22.1094 3.66168 21.3771C5.61456 24.5156 8.64848 27.2357 12.345 28.8399C16.739 30.723 21.1329 30.6184 24.3761 28.8747C24.3761 28.8747 24.411 28.8747 24.411 28.8399C24.5505 28.7701 24.69 28.6655 24.8294 28.5957C26.3987 27.7937 29.4675 26.9916 31.1414 30.1999C31.6296 30.9322 32.5015 26.7475 29.2932 22.8417Z" fill="white"/>
</g>
</g>
<defs>
<clipPath id="clip0_11_1745">
<rect width="37" height="37" fill="white"/>
</clipPath>
</defs>
</svg>
